<!--
  SPDX-FileCopyrightText: 2024 tinytag Contributors
  SPDX-License-Identifier: MIT
-->
<svg xmlns="http://www.w3.org/2000/svg" width="32" height="32"><defs><linearGradient id="a" x1="0" x2="0" y1="0" y2="1"><stop offset="0%" style="stop-color:#fff;stop-opacity:1"/><stop offset="100%" style="stop-color:#fafafa;stop-opacity:1"/></linearGradient></defs><circle cx="16" cy="16" fill="url(#a)" r="16"/><g fill-opacity=".8" transform="translate(8 8)"><path d="M 2,2 V 14 H 4 V 2 Z"/><path d="m 10,1 v 2 h 4 v 10 h -4 v 2 h 4 a 2,2 135 0 0 2,-2 V 3 A 2,2 45 0 0 14,1 Z"/><path d="M 5,2 V 14 H 6 V 2 Z"/><path d="M 0,2 V 14 H 1 V 2 Z"/><path d="m 9,0 h 1 V 16 H 9 Z m 0,0"/><path fill-opacity=".35" d="M 7,0 H 8 V 16 H 7 Z m 0,0"/></g></svg>
